<svg xmlns="http://www.w3.org/2000/svg" width="220.99" height="71.743" viewBox="0 0 220.99 71.743"><g transform="translate(-30.01 -149.011)"><line y1="2" x2="28" transform="translate(40.5 153.5)" fill="none" stroke="#707070" stroke-width="9"/><line x1="4" y2="59" transform="translate(34.5 155.5)" fill="none" stroke="#707070" stroke-width="9"/><line x2="16" transform="translate(38.5 185.5)" fill="none" stroke="#707070" stroke-width="9"/><line y1="3" x2="29" transform="translate(36.5 211.5)" fill="none" stroke="#707070" stroke-width="9"/><line x1="3" y2="32" transform="translate(74.5 182.5)" fill="none" stroke="#707070" stroke-width="9"/><line y1="29" x2="2" transform="translate(77.5 185.5)" fill="none" stroke="#707070" stroke-width="9"/><line x2="21" transform="translate(83.5 185.5)" fill="none" stroke="#707070" stroke-width="9"/><line y2="20" transform="translate(104.5 188.5)" fill="none" stroke="#707070" stroke-width="9"/><line x1="20" y1="10" transform="translate(118.5 198.5)" fill="none" stroke="#707070" stroke-width="9"/><line y1="13" transform="translate(118.5 182.5)" fill="none" stroke="#707070" stroke-width="9"/><line y1="7" x2="14" transform="translate(120.5 173.5)" fill="none" stroke="#707070" stroke-width="9"/><line x2="8" y2="7" transform="translate(138.5 173.5)" fill="none" stroke="#707070" stroke-width="9"/><line y2="10" transform="translate(148.5 182.5)" fill="none" stroke="#707070" stroke-width="9"/><line x1="6" y2="8" transform="translate(142.5 195.5)" fill="none" stroke="#707070" stroke-width="9"/><line x1="18" y2="62" transform="translate(158.5 157.5)" fill="none" stroke="#707070" stroke-width="9"/><line x2="12" y2="54" transform="translate(179.5 157.5)" fill="none" stroke="#707070" stroke-width="9"/><line x2="11" transform="translate(172.5 185.5)" fill="none" stroke="#707070" stroke-width="9"/><line x2="19" transform="translate(199.5 173.5)" fill="none" stroke="#707070" stroke-width="9"/><line y2="48" transform="translate(209.5 160.5)" fill="none" stroke="#707070" stroke-width="9"/><line y2="11" transform="translate(227.5 189.5)" fill="none" stroke="#707070" stroke-width="9"/><line y1="3" x2="5" transform="translate(229.5 200.5)" fill="none" stroke="#707070" stroke-width="9"/><line x2="8" transform="translate(229.5 202.5)" fill="none" stroke="#707070" stroke-width="9"/><line y2="8" transform="translate(241.5 195.5)" fill="none" stroke="#707070" stroke-width="9"/><line y2="12" transform="translate(227.5 177.5)" fill="none" stroke="#707070" stroke-width="9"/><line y2="24" transform="translate(246.5 182.5)" fill="none" stroke="#707070" stroke-width="9"/></g></svg>